<?xml version="1.0" encoding="UTF-8"?>
<!DOCTYPE svg PUBLIC "-//W3C//DTD SVG 1.1//EN" "http://www.w3.org/Graphics/SVG/1.1/DTD/svg11.dtd">
<!-- Creator: CorelDRAW X6 -->
<svg xmlns="http://www.w3.org/2000/svg" xml:space="preserve" width="132.735mm" height="21.7562mm" version="1.1" style="shape-rendering:geometricPrecision; text-rendering:geometricPrecision; image-rendering:optimizeQuality; fill-rule:evenodd; clip-rule:evenodd"
viewBox="0 0 112784 18486"
 xmlns:xlink="http://www.w3.org/1999/xlink">
 <defs>
  <style type="text/css">
   <![CDATA[
    .fil0 {fill:#0F1F3D}
   ]]>
  </style>
 </defs>
 <g id="Capa_x0020_1">
  <metadata id="CorelCorpID_0Corel-Layer"/>
  <path class="fil0" d="M105767 13285l303 -2099 97 40c1283,483 2195,723 2742,723 217,0 396,-53 543,-160 147,-110 220,-240 220,-396 0,-273 -280,-620 -840,-1036 -333,-247 -593,-457 -783,-623 -590,-536 -990,-976 -1196,-1323 -203,-350 -306,-730 -306,-1139 0,-813 310,-1476 933,-1992 620,-513 1423,-770 2406,-770 473,0 949,66 1426,196 473,130 966,323 1473,586l-157 2196c-546,-267 -1040,-473 -1483,-620 -443,-147 -793,-220 -1053,-220 -203,0 -370,47 -503,136 -133,90 -200,207 -200,350 0,280 323,663 966,1143 333,253 590,460 770,616 497,410 836,783 1023,1123 183,337 276,726 276,1169 0,846 -316,1549 -953,2106 -633,556 -1443,833 -2426,833 -520,0 -1060,-70 -1613,-210 -557,-140 -1113,-350 -1666,-630zm-72470 -7527c10,-362 -181,-844 -386,-1049l3259 0 0 0 -179 1299 25 -28 25 -28 24 -27 24 -27 24 -27 24 -26 0 0 24 -26 0 0 24 -26 0 0 23 -25 0 0 23 -25 0 0 23 -25 0 0 23 -25 0 0 23 -24 0 0 23 -24 0 0 22 -24 0 0 22 -23 0 0 22 -23 0 0 22 -23 0 0 21 -22 0 0 22 -22 0 0 21 -22 0 0 21 -21 0 0 21 -21 0 0 21 -21 0 0 21 -21 0 0 21 -20 0 0 20 -20 0 0 20 -20 0 0 20 -19 0 0 20 -19 0 0 20 -19 0 0 20 -19 0 0 19 -18 0 0 19 -18 0 0 19 -18 0 0 19 -18 0 0 19 -17 0 0 19 -17 0 0 18 -16 0 0 19 -16 0 0 18 -16 0 0 18 -16 0 0 18 -15 0 0 18 -15 0 0 17 -15 0 0 17 -15 0 0 17 -15 0 0 17 -14 0 0 17 -14 0 0 17 -14 0 0 16 -13 0 0 16 -13 0 0 16 -12 0 0 16 -12 16 -12 16 -12 16 -12 15 -11 15 -11 15 -11 15 -10 15 -10 14 -10 15 -10 14 -9 14 -9 14 -9 14 -9 15 -9 14 -9 14 -9 15 -8 14 -8 15 -8 14 -8 15 -8 14 -7 15 -7 15 -7 15 -7 14 -7 15 -7 14 -6 15 -7 15 -6 0 0 15 -6 0 0 15 -6 0 0 15 -6 0 0 14 -6 0 0 15 -5 0 0 15 -5 0 0 15 -5 0 0 15 -5 15 -5 15 -5 15 -5 15 -4 15 -4 15 -4 15 -4 15 -4 15 -4 15 -4 15 -4 15 -3 15 -3 15 -3 15 -3 15 -3 15 -3 15 -3 15 -2 15 -2 15 -2 15 -2 15 -2 15 -2 15 -1 15 -1 15 -1 15 -1 15 -1 15 -1 15 -1 15 0 15 -1 15 0 15 0 12 0 12 0 12 0 12 0 12 0 12 0 12 1 12 0 0 0 12 1 0 0 12 1 0 0 12 1 0 0 12 1 0 0 12 1 0 0 12 1 0 0 12 1 0 0 12 1 0 0 12 1 0 0 12 1 0 0 12 1 0 0 12 1 0 0 12 2 0 0 12 2 0 0 12 2 0 0 12 2 12 2 0 0 12 2 0 0 12 2 0 0 12 2 0 0 12 2 0 0 13 2 0 0 12 2 0 0 12 2 0 0 12 3 0 0 12 3 0 0 13 3 0 0 13 3 0 0 12 3 0 0 13 3 0 0 13 3 0 0 13 3 0 0 13 3 0 0 13 3 0 0 13 3 0 0 13 3 0 0 13 3 0 0 13 3 0 0 13 4 0 0 13 3 0 0 13 4 0 0 13 4 0 0 13 4 0 0 13 4 13 4 13 4 13 4 13 4 13 4 13 4 13 5 13 4 13 5 13 5 13 5 14 5 13 5 13 5 13 5 0 0 13 5 0 0 13 5 0 0 13 5 0 0 13 6 0 0 14 5 0 0 13 6 0 0c212,88 433,205 664,352l0 0 15 10 0 0 15 9 0 0 15 10 0 0 15 10 0 0 15 10 0 0 15 10 0 0 15 10 0 0 15 10 -1319 2861 -12 -13 -12 -12 -12 -12 -12 -12 0 0 -12 -12 0 0 -12 -12 0 0 -12 -12 0 0 -11 -12 0 0 -12 -12 0 0 -11 -12 0 0 -11 -12 0 0 -11 -12 0 0 -11 -11 0 0 -11 -11 0 0 -12 -11 0 0 -11 -11 0 0 -11 -11 0 0 -11 -11 0 0c-172,-166 -334,-295 -487,-387 -56,-34 -111,-63 -166,-89l0 0c-151,-69 -297,-104 -436,-104l-12 0 0 0 -12 0 0 0 -13 1 0 0 -12 0 0 0 -12 1 0 0 -12 1 0 0 -13 1 0 0 -12 1 0 0 -12 1 0 0 -13 1 0 0 -13 2 0 0 -13 2 0 0 -13 2 0 0 -13 2 0 0 -13 2 0 0 -13 2 0 0 -13 3 0 0 -13 3 0 0 -13 3 0 0 -13 3 0 0 -13 3 0 0 -13 3 0 0 -13 3 0 0 -13 3 0 0 -13 4 0 0 -13 4 0 0 -13 4 0 0 -13 4 0 0 -13 5 0 0 -13 5 0 0 -13 5 0 0 -13 5 0 0 -13 5 0 0 -13 5 0 0 -13 6 0 0 -13 5 0 0 -13 6 0 0 -13 6 0 0 -13 6 0 0 -13 6 0 0 -13 6 0 0 -13 6 0 0 -13 7 0 0 -13 7 0 0 -13 7 0 0 -13 7 0 0 -13 7 0 0 -13 7 0 0 -13 8 0 0 -13 8 0 0 -13 8 0 0 -13 8 0 0 -13 8 0 0 -13 8 0 0 -13 8 0 0 -13 9 0 0 -13 9 0 0 -13 9 0 0 -13 9 0 0 -13 9 0 0 -13 10 0 0 -13 10 0 0 -13 10 0 0 -13 10 0 0 -13 10 0 0 -13 10 0 0 -13 11 0 0 -13 11 0 0 -13 11 0 0 -13 11 0 0 -13 11 0 0 -13 11 0 0 -13 12 0 0 -13 12 0 0 -13 12 0 0 -13 12 0 0 -13 12 0 0 -13 12 0 0 -13 12 0 0 -13 12 0 0 -13 13 0 0 -13 13 0 0 -13 13 -13 13 -13 13 -13 13 -13 13 -13 14 -13 14 -13 14 -13 14 -13 14 -13 14 -13 15 -13 15 -13 15 -13 15 -13 15 -13 15 -13 16 -13 15 0 0 -13 16 0 0 -13 16 0 0 -13 16 0 0 -13 16 0 0 -13 16 0 0 -13 17 0 0 -13 17 0 0 -13 17 0 0 -13 17 0 0 -13 17 0 0 -13 17 0 0 -13 18 0 0 -13 17 0 0 -13 18 0 0 -13 18 0 0 -13 18 0 0 -13 18 0 0 -13 18 0 0 -13 19 0 0 -13 19 0 0 -13 19 0 0 -13 19 0 0 -13 19 0 0 -13 19 0 0 -13 19 0 0 -13 19 0 0 -13 20 0 0 -832 5597 -2726 0 1250 -8343zm11176 1000c-646,0 -1201,298 -1664,896 -463,599 -693,1333 -693,2205 0,676 159,1207 477,1603 315,392 744,588 1285,588 649,0 1197,-294 1647,-886 450,-592 673,-1326 673,-2195 0,-670 -159,-1204 -477,-1607 -315,-402 -731,-605 -1248,-605zm-5171 3024c0,-1508 511,-2763 1532,-3771 1018,-1008 2293,-1512 3818,-1512 1295,0 2351,409 3166,1228 815,822 1224,1873 1224,3162 0,1546 -511,2834 -1535,3866 -1025,1032 -2300,1546 -3825,1546 -1343,0 -2405,-409 -3196,-1224 -788,-815 -1184,-1914 -1184,-3294zm-14214 2310c54,0 125,3 213,10 88,7 152,10 193,10 1191,0 2110,-281 2760,-842 653,-561 977,-1349 977,-2361 0,-646 -139,-1153 -413,-1519 -274,-369 -646,-551 -1113,-551 -345,0 -680,88 -1001,267 -324,179 -646,453 -964,822l-653 4163zm-7410 -5333c-646,0 -1201,298 -1664,896 -463,599 -693,1333 -693,2205 0,676 159,1207 477,1603 315,392 744,588 1285,588 649,0 1197,-294 1647,-886 450,-592 673,-1326 673,-2195 0,-670 -159,-1204 -477,-1607 -315,-402 -731,-605 -1248,-605zm-5171 3024c0,-1508 511,-2763 1532,-3771 1018,-1008 2293,-1512 3818,-1512 1295,0 2351,409 3166,1228 815,822 1224,1873 1224,3162 0,1546 -511,2834 -1535,3866 -1025,1032 -2300,1546 -3825,1546 -1343,0 -2405,-409 -3196,-1224 -788,-815 -1184,-1914 -1184,-3294zm11631 -9544l-2970 0 2910 406 -1972 13261c575,132 1136,230 1691,297 551,64 1096,98 1637,98 2127,0 3754,-480 4880,-1441 1126,-964 1691,-2347 1691,-4160 0,-1241 -314,-2249 -940,-3020 -629,-775 -1444,-1160 -2449,-1160 -409,0 -818,74 -1228,227 -409,152 -835,386 -1278,697l781 -5205 -2467 0 -286 0zm-13268 13089c-680,338 -1387,592 -2117,764 -727,172 -1471,257 -2222,257 -1931,0 -3500,-602 -4711,-1810 -1214,-1204 -1819,-2763 -1819,-4671 0,-1116 203,-2144 605,-3081 402,-937 1004,-1775 1803,-2516 845,-781 1813,-1353 2898,-1718 1086,-369 2371,-552 3859,-552 633,0 1255,41 1863,125 605,81 1197,210 1772,379l-385 2537c-595,-145 -1153,-254 -1671,-321 -517,-71 -1008,-105 -1471,-105 -1907,0 -3423,477 -4539,1431 -1116,957 -1674,2242 -1674,3862 0,1180 355,2104 1062,2763 707,659 1691,991 2953,991 737,0 1484,-145 2232,-440 751,-294 1451,-717 2097,-1265l-534 3369zm63894 -10273l-3016 0 2955 412 -310 2083c-2023,392 -3685,867 -5087,1564 -569,-818 -1185,-1624 -1859,-2416l-1778 0 -620 0 -2588 0 2895 404c762,1009 1486,2052 2169,3128 -1609,1264 -2825,3054 -3901,5721l3158 0c240,-1086 1031,-2303 2114,-3413 612,1102 1182,2239 1710,3413l2415 0c-704,-1651 -1501,-3278 -2448,-4868 1114,-821 2355,-1481 3562,-1830l-1680 11236 2686 0 673 -4498 67 10c540,43 926,66 1153,66 1712,0 3105,-536 4181,-1609 1076,-1076 1616,-2466 1616,-4168 0,-1080 -377,-1979 -1126,-2699 -753,-720 -1703,-1079 -2846,-1079 -260,0 -530,25 -810,77 -280,52 -570,72 -870,172l273 -1705 -2497 0 -192 0zm-19721 -2762l-2901 0 2842 396 -1988 13261 10052 0 343 -2236 -7117 0 536 -3565 4901 0 353 -2312 -4911 0 460 -3122 5554 0 360 -2422 -8179 0 -306 0zm21111 11405c137,23 277,43 420,57 143,13 290,20 440,20 916,0 1636,-290 2159,-873 520,-583 780,-1386 780,-2409 0,-650 -170,-1163 -513,-1536 -340,-376 -810,-563 -1400,-563 -170,0 -346,20 -530,60 -180,37 -380,97 -593,173l-763 5071zm6617 2252l1224 -8126c51,-362 -153,-906 -373,-1126l3211 0 -176 1279c520,-586 933,-976 1233,-1173 303,-197 610,-293 923,-293 247,0 510,53 790,157 280,103 577,260 890,470l-1299 2819c-247,-267 -473,-463 -683,-590 -207,-126 -406,-190 -593,-190 -267,0 -540,107 -816,316 -277,213 -550,526 -823,943l-820 5514 -2686 0zm10181 -5897l3142 0 0 -187c0,-480 -113,-846 -337,-1096 -223,-250 -553,-377 -980,-377 -443,0 -816,140 -1123,420 -307,280 -540,693 -703,1239zm4765 5344c-496,247 -1036,433 -1623,560 -586,126 -1193,190 -1826,190 -1386,0 -2482,-403 -3292,-1206 -810,-803 -1216,-1899 -1216,-3285 0,-1536 470,-2775 1406,-3725 936,-946 2172,-1419 3708,-1419 1243,0 2203,357 2879,1073 676,716 1016,1733 1016,3046 0,163 -3,330 -13,503 -10,173 -26,343 -47,513l-6138 10c0,33 -3,80 -10,147 -7,63 -10,107 -10,127 0,663 197,1169 590,1519 393,350 966,523 1713,523 423,0 906,-80 1449,-240 543,-160 1179,-410 1909,-756l-497 2422zm1142 -110l303 -2099 97 40c1283,483 2196,723 2742,723 217,0 397,-53 543,-160 147,-110 220,-240 220,-396 0,-273 -280,-620 -840,-1036 -333,-247 -593,-457 -783,-623 -590,-536 -989,-976 -1196,-1323 -203,-350 -306,-730 -306,-1139 0,-813 310,-1476 933,-1992 620,-513 1423,-770 2406,-770 473,0 950,66 1426,196 473,130 966,323 1472,586l-156 2196c-546,-267 -1040,-473 -1483,-620 -443,-147 -793,-220 -1053,-220 -203,0 -370,47 -503,136 -133,90 -200,207 -200,350 0,280 323,663 966,1143 333,253 590,460 770,616 497,410 836,783 1023,1123 183,337 277,726 277,1169 0,846 -316,1549 -953,2106 -633,556 -1443,833 -2425,833 -520,0 -1060,-70 -1613,-210 -557,-140 -1113,-350 -1666,-630z"/>
 </g>
</svg>
