<svg xmlns="http://www.w3.org/2000/svg" xmlns:xlink="http://www.w3.org/1999/xlink" width="1920" zoomAndPan="magnify" viewBox="0 0 1440 809.999993" height="1080" preserveAspectRatio="xMidYMid meet" version="1.0"><rect x="-144" width="1728" fill="#ffffff" y="-80.999999" height="971.999992" fill-opacity="1"/><rect x="-144" width="1728" fill="#ffffff" y="-80.999999" height="971.999992" fill-opacity="1"/><path fill="#000000" d="M 685.15625 290.828125 C 685.15625 290.828125 636.253906 291.472656 636.886719 335.855469 C 637.523438 380.242188 646.417969 419.492188 661.023438 441.363281 C 675.632812 463.234375 713.09375 520.492188 755.648438 514.703125 C 755.648438 514.703125 776.609375 510.199219 792.480469 499.902344 L 741.042969 459.375 C 741.042969 459.375 725.800781 469.023438 716.273438 456.15625 C 706.75 443.289062 676.898438 383.464844 676.898438 383.464844 C 676.898438 383.464844 668.644531 364.164062 687.0625 355.800781 Z M 685.15625 290.828125 " fill-opacity="1" fill-rule="nonzero"/><path fill="#000000" d="M 690.871094 290.828125 C 690.871094 290.828125 694.683594 289.542969 701.667969 293.402344 C 708.648438 297.257812 708.652344 300.472656 708.652344 300.472656 L 709.289062 344.867188 C 709.289062 344.867188 707.382812 347.441406 704.84375 350.007812 C 702.304688 352.582031 694.046875 356.445312 692.773438 353.871094 C 691.507812 351.300781 690.871094 290.828125 690.871094 290.828125 Z M 690.871094 290.828125 " fill-opacity="1" fill-rule="nonzero"/><path fill="#000000" d="M 745.320312 454.628906 L 759.460938 447.148438 C 759.460938 447.148438 762.632812 446.511719 767.714844 449.722656 C 772.792969 452.945312 799.46875 474.175781 799.46875 474.175781 C 799.46875 474.175781 803.914062 478.035156 802.644531 482.539062 C 801.371094 487.042969 798.199219 496.691406 798.199219 496.691406 Z M 745.320312 454.628906 " fill-opacity="1" fill-rule="nonzero"/></svg>