<svg xmlns="http://www.w3.org/2000/svg" xmlns:xlink="http://www.w3.org/1999/xlink" width="1920" zoomAndPan="magnify" viewBox="0 0 1440 809.999993" height="1080" preserveAspectRatio="xMidYMid meet" version="1.0"><defs><clipPath id="5b22701f7e"><path d="M 604.5 289.5 L 835.5 289.5 L 835.5 520.5 L 604.5 520.5 Z M 604.5 289.5 " clip-rule="nonzero"/></clipPath></defs><rect x="-144" width="1728" fill="#ffffff" y="-80.999999" height="971.999992" fill-opacity="1"/><rect x="-144" width="1728" fill="#ffffff" y="-80.999999" height="971.999992" fill-opacity="1"/><path fill="#000000" d="M 770.792969 379.605469 C 770.792969 379.605469 772.542969 416.480469 744.421875 439.25 C 702.484375 473.308594 657.238281 445.671875 657.238281 445.671875 C 657.238281 445.671875 668.234375 445.867188 677.964844 443.242188 C 687.695312 440.613281 694.605469 434.386719 694.605469 434.386719 C 694.605469 434.386719 683.996094 432.148438 678.546875 428.160156 C 673.003906 424.167969 670.957031 416.480469 670.957031 416.480469 C 670.957031 416.480469 674.558594 416.773438 676.894531 416.773438 C 679.230469 416.675781 682.050781 415.605469 682.050781 415.605469 C 682.050781 415.605469 674.460938 414.730469 667.359375 406.75 C 661.8125 400.523438 662.203125 390.113281 662.203125 390.113281 C 662.203125 390.113281 665.507812 392.058594 667.359375 392.546875 C 669.109375 393.03125 672.515625 393.03125 672.515625 393.03125 C 672.515625 393.03125 665.898438 389.042969 662.882812 378.921875 C 659.964844 368.707031 665.605469 358.390625 665.605469 358.390625 C 665.605469 358.390625 675.335938 370.261719 690.03125 377.949219 C 704.722656 385.636719 718.539062 385.34375 718.539062 385.34375 C 718.539062 385.34375 716.496094 379.214844 720 370.261719 C 723.503906 361.214844 731.480469 354.792969 743.546875 353.816406 C 755.613281 352.84375 763.300781 361.992188 763.300781 361.992188 C 763.300781 361.992188 766.996094 361.308594 771.277344 359.753906 C 775.5625 358.195312 779.746094 356.25 779.746094 356.25 C 779.746094 356.25 778.285156 360.824219 775.367188 364.425781 C 772.445312 368.023438 769.136719 370.164062 769.136719 370.164062 C 769.136719 370.164062 772.933594 369.875 776.726562 368.804688 C 780.523438 367.734375 782.664062 366.664062 782.664062 366.664062 C 778.480469 374.058594 770.792969 379.605469 770.792969 379.605469 Z M 770.792969 379.605469 " fill-opacity="1" fill-rule="nonzero"/><g clip-path="url(#5b22701f7e)"><path fill="#000000" d="M 720 520.5 C 656.363281 520.5 604.5 468.734375 604.5 405 C 604.5 341.265625 656.363281 289.5 720 289.5 C 783.636719 289.5 835.5 341.363281 835.5 405 C 835.5 468.636719 783.734375 520.5 720 520.5 Z M 720 295.824219 C 659.769531 295.824219 610.824219 344.769531 610.824219 405 C 610.824219 465.230469 659.769531 514.175781 720 514.175781 C 780.230469 514.175781 829.175781 465.230469 829.175781 405 C 829.175781 344.769531 780.230469 295.824219 720 295.824219 Z M 720 295.824219 " fill-opacity="1" fill-rule="nonzero"/></g></svg>