<svg xmlns="http://www.w3.org/2000/svg" xmlns:xlink="http://www.w3.org/1999/xlink" width="1920" zoomAndPan="magnify" viewBox="0 0 1440 809.999993" height="1080" preserveAspectRatio="xMidYMid meet" version="1.0"><defs><clipPath id="dbde7e0c83"><path d="M 604.5 289.5 L 835.5 289.5 L 835.5 520.5 L 604.5 520.5 Z M 604.5 289.5 " clip-rule="nonzero"/></clipPath></defs><rect x="-144" width="1728" fill="#ffffff" y="-80.999999" height="971.999992" fill-opacity="1"/><rect x="-144" width="1728" fill="#ffffff" y="-80.999999" height="971.999992" fill-opacity="1"/><path fill="#000000" d="M 750.164062 338.636719 L 689.933594 338.636719 C 669.984375 338.636719 653.734375 354.886719 653.734375 374.835938 L 653.734375 435.066406 C 653.734375 455.015625 669.984375 471.265625 689.933594 471.265625 L 750.164062 471.265625 C 770.113281 471.265625 786.363281 455.015625 786.363281 435.066406 L 786.363281 374.933594 C 786.363281 354.886719 770.113281 338.636719 750.164062 338.636719 Z M 774.976562 435.164062 C 774.976562 448.882812 763.882812 459.976562 750.164062 459.976562 L 689.933594 459.976562 C 676.214844 459.976562 665.023438 448.882812 665.023438 435.164062 L 665.023438 374.933594 C 665.023438 361.214844 676.214844 350.023438 689.933594 350.023438 L 750.164062 350.023438 C 763.882812 350.023438 774.976562 361.117188 774.976562 374.933594 Z M 774.976562 435.164062 " fill-opacity="1" fill-rule="nonzero"/><path fill="#000000" d="M 764.371094 368.707031 C 764.371094 373.179688 760.769531 376.878906 756.195312 376.878906 C 751.722656 376.878906 748.023438 373.277344 748.023438 368.707031 C 748.023438 364.230469 751.625 360.53125 756.195312 360.53125 C 760.769531 360.628906 764.371094 364.230469 764.371094 368.707031 Z M 764.371094 368.707031 " fill-opacity="1" fill-rule="nonzero"/><path fill="#000000" d="M 720 371.234375 C 701.414062 371.234375 686.234375 386.414062 686.234375 405 C 686.234375 423.585938 701.414062 438.765625 720 438.765625 C 738.585938 438.765625 753.765625 423.585938 753.765625 405 C 753.765625 386.414062 738.683594 371.234375 720 371.234375 Z M 720 427.378906 C 707.640625 427.378906 697.621094 417.359375 697.621094 405 C 697.621094 392.640625 707.640625 382.621094 720 382.621094 C 732.359375 382.621094 742.378906 392.640625 742.378906 405 C 742.378906 417.359375 732.359375 427.378906 720 427.378906 Z M 720 427.378906 " fill-opacity="1" fill-rule="nonzero"/><g clip-path="url(#dbde7e0c83)"><path fill="#000000" d="M 720 520.5 C 656.363281 520.5 604.5 468.734375 604.5 405 C 604.5 341.363281 656.363281 289.5 720 289.5 C 783.734375 289.5 835.5 341.363281 835.5 405 C 835.5 468.734375 783.734375 520.5 720 520.5 Z M 720 295.824219 C 659.769531 295.824219 610.824219 344.769531 610.824219 405 C 610.824219 465.230469 659.769531 514.175781 720 514.175781 C 780.230469 514.175781 829.175781 465.230469 829.175781 405 C 829.175781 344.769531 780.230469 295.824219 720 295.824219 Z M 720 295.824219 " fill-opacity="1" fill-rule="nonzero"/></g></svg>