<svg xmlns="http://www.w3.org/2000/svg" xmlns:xlink="http://www.w3.org/1999/xlink" width="1920" zoomAndPan="magnify" viewBox="0 0 1440 809.999993" height="1080" preserveAspectRatio="xMidYMid meet" version="1.0"><defs><clipPath id="1070e783e2"><path d="M 604.5 289.5 L 835.5 289.5 L 835.5 520.5 L 604.5 520.5 Z M 604.5 289.5 " clip-rule="nonzero"/></clipPath></defs><rect x="-144" width="1728" fill="#ffffff" y="-80.999999" height="971.999992" fill-opacity="1"/><rect x="-144" width="1728" fill="#ffffff" y="-80.999999" height="971.999992" fill-opacity="1"/><path fill="#000000" d="M 731.09375 370.359375 L 731.09375 389.140625 L 754.738281 389.140625 L 751.429688 414.828125 L 731.09375 414.828125 L 731.09375 473.695312 L 705.308594 473.695312 L 705.308594 414.828125 L 683.21875 414.828125 L 683.21875 389.140625 L 705.308594 389.140625 L 705.308594 370.359375 C 705.308594 350.023438 721.75 336.304688 742.089844 336.304688 C 751.039062 336.304688 756.683594 337.664062 756.683594 337.664062 L 756.683594 359.363281 L 742.089844 359.363281 C 736.054688 359.363281 731.09375 364.328125 731.09375 370.359375 Z M 731.09375 370.359375 " fill-opacity="1" fill-rule="nonzero"/><g clip-path="url(#1070e783e2)"><path fill="#000000" d="M 720 520.5 C 656.363281 520.5 604.5 468.734375 604.5 405 C 604.5 341.265625 656.363281 289.5 720 289.5 C 783.734375 289.5 835.5 341.363281 835.5 405 C 835.5 468.636719 783.734375 520.5 720 520.5 Z M 720 295.824219 C 659.769531 295.824219 610.824219 344.769531 610.824219 405 C 610.824219 465.230469 659.769531 514.175781 720 514.175781 C 780.230469 514.175781 829.175781 465.230469 829.175781 405 C 829.175781 344.769531 780.230469 295.824219 720 295.824219 Z M 720 295.824219 " fill-opacity="1" fill-rule="nonzero"/></g></svg>