<svg xmlns="http://www.w3.org/2000/svg" xmlns:xlink="http://www.w3.org/1999/xlink" width="1920" zoomAndPan="magnify" viewBox="0 0 1440 809.999993" height="1080" preserveAspectRatio="xMidYMid meet" version="1.0"><defs><clipPath id="f3db503805"><path d="M 604.5 321.75 L 835.5 321.75 L 835.5 488.25 L 604.5 488.25 Z M 604.5 321.75 " clip-rule="nonzero"/></clipPath></defs><rect x="-144" width="1728" fill="#ffffff" y="-80.999999" height="971.999992" fill-opacity="1"/><rect x="-144" width="1728" fill="#ffffff" y="-80.999999" height="971.999992" fill-opacity="1"/><g clip-path="url(#f3db503805)"><path fill="#000000" d="M 815.523438 321.75 L 624.476562 321.75 C 613.492188 321.75 604.578125 330.628906 604.578125 341.570312 L 604.578125 468.429688 C 604.578125 479.371094 613.492188 488.25 624.476562 488.25 L 815.523438 488.25 C 826.507812 488.25 835.421875 479.371094 835.421875 468.429688 L 835.421875 341.570312 C 835.421875 330.628906 826.507812 321.75 815.523438 321.75 Z M 760.875 397.152344 L 826.109375 336.140625 C 826.945312 337.804688 827.460938 339.628906 827.460938 341.570312 L 827.460938 468.429688 C 827.460938 469.933594 827.144531 471.363281 826.625 472.710938 Z M 815.523438 329.679688 C 817.234375 329.679688 818.867188 330.035156 820.296875 330.710938 L 720 424.503906 L 619.703125 330.710938 C 621.132812 330.035156 622.765625 329.679688 624.476562 329.679688 Z M 613.375 472.710938 C 612.855469 471.363281 612.539062 469.933594 612.539062 468.429688 L 612.539062 341.570312 C 612.539062 339.628906 613.054688 337.804688 613.890625 336.179688 L 679.125 397.191406 Z M 624.476562 480.320312 C 622.328125 480.320312 620.378906 479.726562 618.628906 478.734375 L 684.933594 402.582031 L 717.253906 432.828125 C 718.011719 433.542969 719.003906 433.898438 719.960938 433.898438 C 720.914062 433.898438 721.910156 433.542969 722.667969 432.828125 L 754.984375 402.582031 L 821.371094 478.734375 C 819.621094 479.726562 817.671875 480.320312 815.523438 480.320312 Z M 624.476562 480.320312 " fill-opacity="1" fill-rule="nonzero"/></g></svg>