<svg xmlns="http://www.w3.org/2000/svg" xmlns:xlink="http://www.w3.org/1999/xlink" width="1920" zoomAndPan="magnify" viewBox="0 0 1440 809.999993" height="1080" preserveAspectRatio="xMidYMid meet" version="1.0"><defs><clipPath id="e80173a103"><path d="M 604.5 392 L 751 392 L 751 417 L 604.5 417 Z M 604.5 392 " clip-rule="nonzero"/></clipPath><clipPath id="1c2922d40d"><path d="M 665 295.5 L 835.5 295.5 L 835.5 513.75 L 665 513.75 Z M 665 295.5 " clip-rule="nonzero"/></clipPath></defs><rect x="-144" width="1728" fill="#ffffff" y="-80.999999" height="971.999992" fill-opacity="1"/><rect x="-144" width="1728" fill="#ffffff" y="-80.999999" height="971.999992" fill-opacity="1"/><g clip-path="url(#e80173a103)"><path fill="#000000" d="M 604.507812 392.5 L 750.394531 392.5 L 750.394531 416.75 L 604.507812 416.75 Z M 604.507812 392.5 " fill-opacity="1" fill-rule="evenodd"/></g><path fill="#000000" d="M 716.441406 353.613281 L 758.988281 396.050781 C 763.738281 400.785156 763.738281 408.464844 758.988281 413.199219 L 716.441406 455.636719 L 699.246094 438.488281 L 733.203125 404.625 L 699.246094 370.761719 Z M 716.441406 353.613281 " fill-opacity="1" fill-rule="evenodd"/><g clip-path="url(#1c2922d40d)"><path fill="#000000" d="M 665.292969 307.625 C 665.292969 300.929688 670.734375 295.5 677.449219 295.5 L 823.335938 295.5 C 830.050781 295.5 835.492188 300.929688 835.492188 307.625 L 835.492188 501.625 C 835.492188 508.320312 830.050781 513.75 823.335938 513.75 L 677.449219 513.75 C 670.734375 513.75 665.292969 508.320312 665.292969 501.625 L 665.292969 465.25 L 689.605469 465.25 L 689.605469 489.5 L 811.179688 489.5 L 811.179688 319.75 L 689.605469 319.75 L 689.605469 344 L 665.292969 344 Z M 665.292969 307.625 " fill-opacity="1" fill-rule="evenodd"/></g></svg>