<?xml version="1.0" encoding="utf-8"?>
<!-- Generator: Adobe Illustrator 16.0.0, SVG Export Plug-In . SVG Version: 6.00 Build 0)  -->
<!DOCTYPE svg PUBLIC "-//W3C//DTD SVG 1.1//EN" "http://www.w3.org/Graphics/SVG/1.1/DTD/svg11.dtd">
<svg version="1.1" id="Layer_1" xmlns="http://www.w3.org/2000/svg" xmlns:xlink="http://www.w3.org/1999/xlink" x="0px" y="0px"
	 width="208.412px" height="64.678px" viewBox="0 0 208.412 64.678" enable-background="new 0 0 208.412 64.678"
	 xml:space="preserve">
<g>
	<path fill="#3E668B" d="M2.986,38.545L21.84,26.6c4.198-2.614,8.398-0.561,8.398,4.105v13.906c0,1.586,1.12,2.706,2.8,2.706h3.642
		c11.759,0,21.931-8.493,21.931-22.959C58.61,9.426,46.852,0,33.038,0H3.92C1.867,0,0,1.866,0,3.919v33.319
		C0,38.638,1.773,39.291,2.986,38.545"/>
	<path fill="#27B3BC" d="M0,47.784v3.268c0,7.373,6.44,13.626,13.906,13.626h7.747c2.426,0,4.2-1.682,4.2-4.107V33.412
		c0-1.866-1.961-2.895-3.548-1.866L1.587,44.704C0.374,45.451,0,46.386,0,47.784"/>
	<path fill="#393A38" d="M91.683,30.602c0,4.167-2.332,6.906-7.78,6.906h-3.613v6.469h-5.041V23.609h8.654
		C89.293,23.609,91.683,26.318,91.683,30.602 M86.583,30.602c0-1.952-0.875-2.854-3.003-2.854h-3.291v5.71h3.291
		C85.708,33.458,86.583,32.379,86.583,30.602"/>
	<path fill="#393A38" d="M104.591,27.018v4.983c-0.612-0.117-1.224-0.174-1.806-0.146c-2.419,0-3.469,1.429-3.614,4.139v-0.059
		l-0.029,8.042h-4.838V27.135h3.614l0.991,3.352c0.815-2.215,2.564-3.614,4.633-3.585C104.066,26.901,104.329,26.931,104.591,27.018
		"/>
	<path fill="#393A38" d="M106.397,35.498c0-5.391,2.711-8.626,8.333-8.626c5.565,0,8.306,3.235,8.306,8.626
		c0,5.478-2.74,8.741-8.306,8.741S106.397,40.976,106.397,35.498 M117.994,35.468c0-3.205-0.991-4.721-3.264-4.721
		c-2.301,0-3.32,1.516-3.32,4.721c0,3.118,1.02,4.896,3.32,4.896C117.003,40.364,117.994,38.761,117.994,35.468"/>
	<path fill="#393A38" d="M140.606,27.135l-5.535,16.842h-5.479l-5.536-16.842h4.896l2.943,10.17
		c0.174,0.758,0.319,1.543,0.438,2.271c0.115-0.729,0.232-1.514,0.407-2.271l2.972-10.17H140.606z"/>
	<path fill="#393A38" d="M142.326,22.59h4.837v3.117h-4.837V22.59z M142.326,27.136h4.837v16.842h-4.837V27.136z"/>
	<path fill="#393A38" d="M166.365,32.816v11.16H161.5v-9.907c0-2.127-0.787-3.089-2.566-3.089c-1.923,0-3.059,1.137-3.204,3.672
		v9.324h-4.837V27.135h3.584l0.874,2.972c0.933-2.214,2.826-3.204,5.304-3.204C164.325,26.902,166.365,28.854,166.365,32.816"/>
	<path fill="#393A38" d="M169.076,35.556c0-5.36,2.942-8.684,8.565-8.684c2.683,0,4.429,0.815,5.945,1.865l-1.543,3.992
		c-1.109-1.166-2.419-1.777-4.022-1.777c-2.186,0-3.934,1.428-3.934,4.575c0,3.146,1.893,4.633,3.934,4.633
		c1.604,0,2.913-0.642,4.022-1.778l1.543,3.992c-1.517,1.02-3.263,1.866-5.945,1.866C172.165,44.24,169.076,40.917,169.076,35.556"
		/>
	<path fill="#393A38" d="M185.859,22.59h4.837v3.117h-4.837V22.59z M185.859,27.136h4.837v16.842h-4.837V27.136z"/>
	<path fill="#393A38" d="M208.412,33.487v10.489h-3.584l-0.874-3.089c-0.815,2.068-2.622,3.352-5.389,3.352
		c-3.644,0-5.071-2.069-5.071-4.749c0-4.692,4.721-5.216,10.141-5.741v-0.058c0-2.099-1.428-2.914-3.643-2.914
		c-1.602,0-3.38,0.698-4.69,2.01l-1.925-3.584c1.574-1.165,3.991-2.272,7.141-2.272C205.994,26.931,208.385,29.262,208.412,33.487
		 M203.635,37.596v-1.194c-3.117,0.349-5.274,0.671-5.274,2.563c0,1.049,0.524,1.719,1.923,1.719
		C201.799,40.684,203.519,39.81,203.635,37.596"/>
	<path fill="#393A38" d="M87.961,49.064v15.504h-2.504l-8.018-12.114c0.066,0.753,0.155,1.727,0.155,2.923v9.191h-2.481V49.064
		h2.791l7.73,11.694c-0.066-0.886-0.155-1.795-0.155-3.035v-8.659H87.961z"/>
	<polygon fill="#393A38" points="102.997,62.221 102.997,64.569 91.945,64.569 91.945,49.064 102.753,49.064 102.753,51.412 
		94.425,51.412 94.425,55.421 101.468,55.421 101.468,57.769 94.425,57.769 94.425,62.221 	"/>
	<polygon fill="#393A38" points="116.639,51.323 111.766,51.323 111.766,64.568 109.285,64.568 109.285,51.323 104.369,51.323 
		104.369,49.064 116.639,49.064 	"/>
</g>
</svg>
